<mxfile host="65bd71144e">
    <diagram id="me74QtG0wh2hk55Q5Uft" name="Page-1">
        <mxGraphModel dx="1809" dy="968" grid="1" gridSize="10" guides="1" tooltips="1" connect="1" arrows="1" fold="1" page="1" pageScale="1" pageWidth="850" pageHeight="1100" math="0" shadow="0">
            <root>
                <mxCell id="0"/>
                <mxCell id="1" parent="0"/>
                <mxCell id="12" value="Create profile" style="swimlane;whiteSpace=wrap;html=1;swimlaneFillColor=default;fillColor=#f5f5f5;strokeColor=#666666;gradientColor=#b3b3b3;" parent="1" vertex="1">
                    <mxGeometry x="10" y="10" width="1070" height="260" as="geometry"/>
                </mxCell>
                <mxCell id="15" value="Board Buddy Front End" style="swimlane;whiteSpace=wrap;html=1;swimlaneFillColor=#FFFFFF;fillColor=#f5f5f5;gradientColor=#b3b3b3;strokeColor=#666666;" parent="12" vertex="1">
                    <mxGeometry x="380" y="35" width="670" height="155" as="geometry"/>
                </mxCell>
                <mxCell id="18" value="&lt;p style=&quot;margin:0px;margin-top:6px;text-align:center;&quot;&gt;&lt;b&gt;React Front End&lt;/b&gt;&lt;/p&gt;&lt;hr&gt;&lt;p style=&quot;text-align: center; margin: 0px 0px 0px 8px;&quot;&gt;&lt;font style=&quot;font-size: 19px;&quot;&gt;Create Profile Page&lt;/font&gt;&lt;br&gt;&lt;br&gt;&lt;/p&gt;" style="align=left;overflow=fill;html=1;dropTarget=0;spacingTop=0;" parent="15" vertex="1">
                    <mxGeometry x="20" y="35" width="180" height="90" as="geometry"/>
                </mxCell>
                <mxCell id="19" value="" style="shape=component;jettyWidth=8;jettyHeight=4;fillColor=#ffe6cc;strokeColor=#d79b00;" parent="18" vertex="1">
                    <mxGeometry x="1" width="20" height="20" relative="1" as="geometry">
                        <mxPoint x="-24" y="4" as="offset"/>
                    </mxGeometry>
                </mxCell>
                <mxCell id="22" value="" style="ellipse;whiteSpace=wrap;html=1;align=center;aspect=fixed;resizable=0;points=[];outlineConnect=0;sketch=0;" parent="15" vertex="1">
                    <mxGeometry x="255" y="75" width="10" height="10" as="geometry"/>
                </mxCell>
                <mxCell id="20" value="" style="rounded=0;orthogonalLoop=1;jettySize=auto;html=1;endArrow=none;endFill=0;sketch=0;sourcePerimeterSpacing=0;targetPerimeterSpacing=0;exitX=1;exitY=0.5;exitDx=0;exitDy=0;" parent="15" source="18" target="22" edge="1">
                    <mxGeometry relative="1" as="geometry">
                        <mxPoint x="230" y="120" as="sourcePoint"/>
                    </mxGeometry>
                </mxCell>
                <mxCell id="32" value="Profile Information" style="edgeLabel;html=1;align=center;verticalAlign=middle;resizable=0;points=[];" parent="20" vertex="1" connectable="0">
                    <mxGeometry x="0.3126" y="2" relative="1" as="geometry">
                        <mxPoint x="29" y="-23" as="offset"/>
                    </mxGeometry>
                </mxCell>
                <mxCell id="21" value="" style="rounded=0;orthogonalLoop=1;jettySize=auto;html=1;endArrow=halfCircle;endFill=0;endSize=6;strokeWidth=1;sketch=0;" parent="15" target="22" edge="1">
                    <mxGeometry relative="1" as="geometry">
                        <mxPoint x="340" y="80" as="sourcePoint"/>
                        <mxPoint x="330" y="75" as="targetPoint"/>
                    </mxGeometry>
                </mxCell>
                <mxCell id="33" value="User&#10;Database&#10;Module" style="shape=module;align=left;spacingLeft=20;align=center;verticalAlign=middle;fillColor=#fff2cc;strokeColor=#d6b656;" parent="15" vertex="1">
                    <mxGeometry x="330" y="55" width="100" height="50" as="geometry"/>
                </mxCell>
                <mxCell id="39" value="" style="rounded=0;orthogonalLoop=1;jettySize=auto;html=1;endArrow=halfCircle;endFill=0;endSize=6;strokeWidth=1;sketch=0;exitX=1;exitY=0.5;exitDx=0;exitDy=0;" parent="15" source="33" edge="1">
                    <mxGeometry relative="1" as="geometry">
                        <mxPoint x="560" y="85" as="sourcePoint"/>
                        <mxPoint x="500" y="80" as="targetPoint"/>
                    </mxGeometry>
                </mxCell>
                <mxCell id="41" value="Insert" style="html=1;verticalAlign=bottom;startArrow=oval;startFill=1;endArrow=block;startSize=8;entryX=0;entryY=0.5;entryDx=0;entryDy=0;" parent="15" target="35" edge="1">
                    <mxGeometry x="-0.1428" width="60" relative="1" as="geometry">
                        <mxPoint x="500" y="79.70999999999998" as="sourcePoint"/>
                        <mxPoint x="560" y="79.70999999999998" as="targetPoint"/>
                        <Array as="points">
                            <mxPoint x="540" y="80"/>
                        </Array>
                        <mxPoint as="offset"/>
                    </mxGeometry>
                </mxCell>
                <mxCell id="37" value="" style="group" parent="15" vertex="1" connectable="0">
                    <mxGeometry x="570" y="40" width="80" height="80" as="geometry"/>
                </mxCell>
                <mxCell id="35" value="" style="ellipse;shape=umlEntity;whiteSpace=wrap;html=1;fillColor=#d5e8d4;strokeColor=#82b366;" parent="37" vertex="1">
                    <mxGeometry width="80" height="80" as="geometry"/>
                </mxCell>
                <mxCell id="36" value="" style="shape=image;verticalLabelPosition=bottom;labelBackgroundColor=default;verticalAlign=top;aspect=fixed;imageAspect=0;image=data:image/webp,UklGRrAMAABXRUJQVlA4TKMMAAAv5MBMEOfkOrZtpdn3XtzhjxYy6b+F9OLuglOD40aSFCm6Z/aYwX9DzqL9H1M7jiTJiRKtwTSsxxB4iRPtJrZtV1lUVMlBlIGZLJSeQcOTcD45vf/WASzsTQAV2gzooUGDL/TQwx8q/KFChR4aVPjBH/4NhAf8IA2EQKA1gAgDCLQGQjcOQBqZoDj5YaZwA4MFLjTxChI/kD9uw/5oooHwsb+hNvyg+RWCQBMtN4fRv4dLJEz1V9BCh/CD5lPwQpQpQdMDOggEAgUKFCgQCOQb5SX9ZBEEkjiFYhyBQIFAoLzKOTqvq02GO3Rk16mqoIvOIXCWnby4Ljv5ovdYtmzZC4t1r703k7qFh+tpEy07PprAFp3V5bAbL/fbYzee7tfH4/a4X2+/2+ONz/tn2b7HpBA2YbfmKGjbhknKH3Z3IETEBABSVRu1ZQCmmkeLZWnbGkuO/vou4F+xYkEHKIkWhKClBKlC3nvTVt67lW5p7rY052T+/LCciej/BNDatr1t2+DCD8iRj9LWU1Q23S1KpuTBOMODulqNqp+PMkn3y95774HsnX/LBeH7BPYwov8TINvZ9qiNfn01JClhhu7ZQAX5PwAJHwD3f3P490LS+mg0Ef2fAFL+xQezu6rVanV6XGM1OTv74GVa9ZcePH//uXv3bm5uIPLm5pV79+7ff+HBy6u0lxgcY2DjtlTbwvQavYWabkt1PWr0BgrbkPdV6GWz0Jx92qe3R4cZss9tXiUwJmrjPqMSGIM2qAAw2z6XPTDG3UsIgE19Fj0bDL23RgpAqDNoG2PwtSY1wGTtWsD4fy/RA0zsirUADf/tcgBw0qpHqNjYhAUWAFNUKgwdw03o1ngAXFOneyjp4ybAAS7ASZnK0HKQgCYXgO+aJKgZYkq3xgbMrkeAmiGmwXc+wLsWAVp6HcyCZT7ARYcALb0B5oF5PsC7Bhla+jHm683xAe7j7dDSj7EAdGt8wI3ntPBjLAR/1fhAHi1DST9GDXCQETOaU8KPUQsc5AN5rAYdvQFqggN8+LGyDt4AtcECGxgr6tDBIcACG22ooMLnOJTeHBd1KKfB+/8MB7q1UuDHw4J2GfAiHBocKAEdNACa1rcfjejVLM9HM6Btd97AFFiyulU0ple3uBaaA2178yKTYMnaVtCoXt3SfDQL2pbWNw3mrSxA47o1C/Mi82DZwlaQANSty4tJHLSuVSQBTctqIJG2ZYVUoGlVDSTTtqpVOtC0KC8m1LaoFSQETXuKSLVHkh8iQFIwN4riEH1iB0dRGqGBxKBOhIbeR1glt0zDjkVmgIhcl0YaLMpbRHIwT6IN1llcyMB3ChuNXsTFDEDdPO7DkRe2iBy8J6/S+N3KCll4LC6Rht2Kiln44VVhgXTsVpCPPLwnK5CW3cpZYeKxqESKbmIGTPzwqhyupGphGR5y8Z4Y10jZ7kUssvFQCCdSuBoBK2z8cCsiNNKyXkSU+LQ+H28LcJUuTmPFfhn1yCchH5+c5ipd6ftQLl9B1JM5w2fk8Umu0rUddSxzFRFld1zAyA+3J3BodH0cDekAorbxQSucvHmYzZ0ObDwctyOIqAQ+os/Jh8eY2OhYh+Fg+zFEVAJfFXHy8AC77XR0hAIIhxFR3exlyMnX1/jU6PgMFRBOIKKWw1iGz8oPr17gYqVTM5RA6Gfc/W1nZauUssXLm3fYxUpnZ6gB205KdXd84+UjF0sjgRsUARcBQpzl5VcS2R1UAbY+m19EFIY2MGUyPwloHpeqAbh9Kj+c1iNDJyC0dciMK1UBQpvHX2f0bHC1MoCvs/jjuBYZB6oDmNQPOjcaasCxCgHw5ZALI6BFg6N1AjiU6bRkcaJWADjkPo89Wpyr2F0X9wsusdVzMDhdOQA85bgpgqVWNguR+v3reGXnr+IkL39STd5A7CRS/+HFQPZMQl6wLCvlaJGVx+vis/JwXSQr/1mYAScfLkzIyTsLE3Dy5sL4nNwujIz5+Bor0+Hj4dLs5+PDpfH5eHtpZMzGq2sTcvEMa7PIxadz2eR5XLwzlyhPdph4VV4bKg8Q8PAM8mnoNoDHwyfy/Fjk5MmQhTfl5cHqAIscfA3xhkZ38mTEwKfy8nA7y1th4G1xjsbP8hr0nkE6dwUoiJMdcp9I451UDOJa5F4VxjspGaTJiNhDyOad1MzSAmLvyLI7KVqNLBmRegbRvpOq3csKSL0niROpW4wkGRH6+laQb6RwjywoIPQhxJpKas5ORC3IkRGZr2+lmEyX72P1HkQtiAnIfAiZJtO121id8SFqkWXIAZGvb0XYTNebOlTT+BH1bEW0iHwIgaHSgRmDwQQgon3j82SHxDOcbnOnQ81wlzBEVAKf1SDx9kk2NTo4YjjoUERUNnOKXCHwEGfa1OjwHQpgOI6I9uROkJFxX796mAm504mNVUA+4251xnW1jPsQhxqfdjq3W+iAfNJdd8fUmAa5athjXO+23Oj0ZqEF4nnJ311neryAF5n1+kXstryTyJ2hB3yXkP6b61TGx9JkS8t/2t7Dv1oXc+0kNuG/6gBTxWT+5u50KuPj6zpQ1yMfY6mdZHcPZYCty8q8dErHVT0//k0DFoY+4DyCuKjjup4/SH5zuFgPwNQBxDkNd7X8RuJbwJWaAK7KE2eK3dfxK0lvAVfrApgs7tKpQk80/Py3sBZwoDYAxyZLXDxR4MrLYj/+TaKzw6H6APBZlDhf4Ia6WmTjTxLcNsbBKgEciiBxLt8ddbvIERLbksXxSgHgUMSIM7nuqQcFDgmhLVmcqtddn5oMcTrPU/Uy3yFhZNkMztYNgAk7fzPg0qkcL5S6leeQGH6NDhLVuzs2tcMdkrh0KuOKUupBjkNiuK1sDlKnkLp1eof7uz5x6WTaHaWUuppxSOhvJTqG5Hmkbhmv7HB/0yIunkh5mHiQsnFYaK0lBgf5k8ncOl5xdrq/5hMXTyReJNR1ANg4InL3WmP0jjHqnC40znnHcXa4rut+vYx4U6W+vA7Hv7iuu8dxnIpzDuNP7kpvgA/TlHr0UfK6EtK7pjKff5LlRb7PeivLjHyW9liWm1dpb0vO25TnsuR8SnlVduSzxJvS8yrxrvS8SXwoPe8SsvR8KkfSRrxGjy0kavXeMpJGr5VS7xiiofdlsmORWaU0WFToHU99sM5rtNHoRZ/3HHEfjoI68sNjfiqN3606Un76zEwiDbvVh9tAOna7NoG07HZlMim6LQtXUrXwmrhOyna/IJxI4WpWI3TSOfFKuEpq98ir4Cqp3rNZAVdJ/+Imx6HRHNtm5uVyp4mWwDMysdF0S+C52LjTpOtmZ+FTo6n3HIx2LlZawlY2pxT7WGktawpOFXaxNFrUvUTvhmO3pdppfXvNMTgrjp2LsVZa773WGGNwzrmD2DnnthhzrZ3+7///Tbg++9cNT9J0PXtfm66ff18ImqOebAYhswx6SQHg6ThFAKBOaQD1FQcZpwEwxsExEXIdCeZ3pmzlTkATpnIYf2dVZ9b9m3TzMVaWKv6lMVlb6exD9o9E4FhnL4bIpi2wrvuFiExbYH3Ts8usazjf9CQwRDZtAQBF3c8upvvC+rWba4hGmHUN55ueHln5Bwp2VQzUQcGuwJJGDs8c3eJR/oGCXRWDsLTIYVfHFy+NHJ45uuVxVXBv4M42jZCq9ajgPtpaBccMPhohVfu4Sg/veTUh8OBWehTLakBgy4TAw8OKm/NK52GybzfvYdVmMXQeJvv+kVCvbggdQ+kVQltuCP3AiqqqXMqqqnbSxwry39VzsKKqKgmNR1lV1c4H8t/V8w9w0Mx8ctDMXBcC3HZsjDFjqINm5pN0c3vumLktA+3YGGPGH6AjIuJS+CAiMioMyBqqIyLiUji7gYhoQSCQ9XEUAgYvtlTC2YI7YEsVgR6d+CSZpJGPlER9EjWUQgpjCgFvSfO8EzClibGOkIc0IfuHUHHSnP/xMhPR/Hua7+Xw2TTNSxFq3lob6+MBlCdm1pdse94e5YmZ9SXbQMPWQqp92NpBLO+gEPzjvUYpBP9wARsf/3F7dajXeF0eow71up0Dx5q216swqos3I0avwqhuO5givdH2lmMeBHM8Yqcnn+WYB8G8mUNNkYY7IFMovwwDbYCGI/aWHLUPmUL5ZRhoK/nXEqmjUCoKTTWUctrjzVAY5UM0crPWhrxoqqGU0x5vhraxB7qFIuzx1pNsWDQrw+Kwmlm2Ec09O/cTiYZFszIsDpKrH9Hcs3M/UVAOOi4kzhzU0E8eIhUn4zqmyw2uu32ynJ1c5yR6pRRSnEL5aUmfHKeFkvPm9z1Qgk7Gk/77/393AA==;" parent="37" vertex="1">
                    <mxGeometry x="15.720000000000027" y="7" width="50.56" height="68" as="geometry"/>
                </mxCell>
                <mxCell id="11" value="Grand Master &lt;br&gt;Steve" style="shape=umlActor;verticalLabelPosition=bottom;verticalAlign=top;html=1;" parent="12" vertex="1">
                    <mxGeometry x="10" y="65" width="60" height="130" as="geometry"/>
                </mxCell>
                <mxCell id="42" value="" style="edgeStyle=none;html=1;endArrow=block;endFill=0;endSize=12;verticalAlign=bottom;labelBackgroundColor=none;" edge="1" parent="12">
                    <mxGeometry width="160" relative="1" as="geometry">
                        <mxPoint x="60" y="129.99999999999991" as="sourcePoint"/>
                        <mxPoint x="140" y="129.99999999999991" as="targetPoint"/>
                    </mxGeometry>
                </mxCell>
                <mxCell id="82" value="&lt;span style=&quot;font-size: 11px;&quot;&gt;Board&lt;/span&gt;&lt;br style=&quot;border-color: var(--border-color); font-size: 11px;&quot;&gt;&lt;span style=&quot;font-size: 11px;&quot;&gt;Buddy&lt;/span&gt;" style="html=1;rounded=0;fillColor=#ffe6cc;strokeColor=#d79b00;" vertex="1" parent="12">
                    <mxGeometry x="150" y="95" width="100" height="70" as="geometry"/>
                </mxCell>
                <mxCell id="81" value="" style="sketch=0;aspect=fixed;pointerEvents=1;shadow=0;dashed=0;html=1;strokeColor=#314354;labelPosition=center;verticalLabelPosition=bottom;verticalAlign=top;align=center;fillColor=#647687;shape=mxgraph.azure.computer;fontColor=#ffffff;" vertex="1" parent="12">
                    <mxGeometry x="150" y="95" width="100" height="90" as="geometry"/>
                </mxCell>
                <mxCell id="87" value="" style="html=1;verticalAlign=bottom;startArrow=circle;startFill=1;endArrow=open;startSize=6;endSize=8;entryX=0;entryY=0.75;entryDx=0;entryDy=0;" edge="1" parent="12" target="18">
                    <mxGeometry width="80" relative="1" as="geometry">
                        <mxPoint x="310" y="137" as="sourcePoint"/>
                        <mxPoint x="360" y="180" as="targetPoint"/>
                        <Array as="points">
                            <mxPoint x="350" y="137"/>
                        </Array>
                    </mxGeometry>
                </mxCell>
                <mxCell id="85" value="" style="rounded=0;orthogonalLoop=1;jettySize=auto;html=1;endArrow=halfCircle;endFill=0;endSize=6;strokeWidth=1;sketch=0;exitX=1;exitY=0.5;exitDx=0;exitDy=0;exitPerimeter=0;" edge="1" parent="12">
                    <mxGeometry relative="1" as="geometry">
                        <mxPoint x="250" y="137.71" as="sourcePoint"/>
                        <mxPoint x="310" y="137.71" as="targetPoint"/>
                    </mxGeometry>
                </mxCell>
            </root>
        </mxGraphModel>
    </diagram>
</mxfile>